<svg width="14" height="11" viewBox="0 0 14 11" fill="none" xmlns="http://www.w3.org/2000/svg">
<path d="M13.4269 0.857309C13.3703 0.749613 13.2854 0.659413 13.1813 0.596444C13.0772 0.533475 12.9579 0.500127 12.8362 0.5H0.83707C0.715641 0.500502 0.596646 0.534095 0.492881 0.597169C0.389117 0.660242 0.304509 0.750408 0.248157 0.857971C0.191804 0.965533 0.16584 1.08642 0.173055 1.20764C0.180271 1.32885 0.220393 1.44581 0.289108 1.54593L6.2887 10.212C6.34985 10.3008 6.43168 10.3734 6.52714 10.4236C6.6226 10.4738 6.72882 10.5 6.83666 10.5C6.9445 10.5 7.05072 10.4738 7.14618 10.4236C7.24163 10.3734 7.32346 10.3008 7.38462 10.212L13.3842 1.54593C13.4536 1.44602 13.4943 1.32899 13.5018 1.20758C13.5093 1.08617 13.4834 0.965022 13.4269 0.857309ZM6.83666 8.66144L2.10898 1.83324H11.5643L6.83666 8.66144Z" fill="#9E8A5A" fill-opacity="0.9"/>
<path d="M10.8364 3.56645L7.61259 8.36612L4.43681 3.56645H10.8364Z" fill="#9E8A5A" fill-opacity="0.9"/>
</svg>
