<svg width="14" height="11" viewBox="0 0 14 11" fill="none" xmlns="http://www.w3.org/2000/svg">
<path d="M13.4205 0.857309C13.3639 0.749613 13.279 0.659413 13.1749 0.596444C13.0709 0.533475 12.9516 0.500127 12.8299 0.5H0.830723C0.709293 0.500502 0.590298 0.534095 0.486533 0.597169C0.382769 0.660242 0.298161 0.750408 0.241809 0.857971C0.185457 0.965533 0.159492 1.08642 0.166708 1.20764C0.173923 1.32885 0.214046 1.44581 0.28276 1.54593L6.28235 10.212C6.3435 10.3008 6.42533 10.3734 6.52079 10.4236C6.61625 10.4738 6.72247 10.5 6.83031 10.5C6.93815 10.5 7.04437 10.4738 7.13983 10.4236C7.23529 10.3734 7.31712 10.3008 7.37827 10.212L13.3779 1.54593C13.4472 1.44602 13.4879 1.32899 13.4954 1.20758C13.503 1.08617 13.477 0.965022 13.4205 0.857309ZM6.83031 8.66144L2.10264 1.83324H11.558L6.83031 8.66144Z" fill="#1A3E40" fill-opacity="0.9"/>
<path d="M10.83 3.56645L7.60625 8.36612L4.43046 3.56645H10.83Z" fill="#1A3E40" fill-opacity="0.9"/>
</svg>
