<svg width="40" height="40" viewBox="0 0 40 40" fill="none" xmlns="http://www.w3.org/2000/svg">
<path d="M38.1935 4.09586H23.6177V0.460938H20.9005L0 4.10492V35.901L20.7779 39.5359H23.6177V35.9146H37.2575C38.0299 35.8783 38.8887 35.9373 39.552 35.4648C40.0836 34.6516 39.9473 33.6337 39.9927 32.7159V5.85875C40.0881 4.82281 39.2295 3.99133 38.1935 4.09586ZM15.1574 26.1732C14.3987 26.5685 13.2627 26.155 12.3631 26.2186C11.7588 23.2108 11.0545 20.2211 10.5139 17.1996C9.98227 20.1348 9.29164 23.0426 8.68281 25.9596C7.81047 25.9142 6.93359 25.8596 6.05664 25.8006C5.30234 21.8022 4.41641 17.8311 3.71211 13.8237C4.48906 13.7873 5.27055 13.7555 6.0475 13.7283C6.51547 16.6226 7.04711 19.5032 7.45609 22.402C8.09672 19.4305 8.75094 16.459 9.38711 13.4875C10.2504 13.4375 11.1137 13.4012 11.977 13.3557C12.5812 16.4227 13.1991 19.485 13.8534 22.5383C14.3669 19.3851 14.9348 16.2409 15.4846 13.0922C16.3933 13.0604 17.302 13.0104 18.2062 12.9559C17.1794 17.3586 16.2797 21.7977 15.1574 26.1732ZM37.8302 33.7567H23.6177V30.903H35.4309V29.0856H23.6177V26.8138H35.4309V24.9964H23.6177V22.7245H35.4309V20.9072H23.6177V18.6353H35.4309V16.818H23.6177V14.5461H35.4309V12.7287H23.6177V10.4569H35.4309V8.63945H23.6177V6.24023H37.8302V33.7567Z" fill="#3396D2"/>
</svg>
