<svg width="50" height="50" viewBox="0 0 50 50" fill="none" xmlns="http://www.w3.org/2000/svg">
<g opacity="0.5">
<path d="M14.1626 4.94141H32.2876C36.8473 8.17075 40.823 12.1539 44.0438 16.7195V44.5977H14.1626V4.94141Z" fill="url(#paint0_linear)"/>
<path d="M14.1626 4.94141H32.2876C36.8473 8.17075 40.823 12.1539 44.0438 16.7195V44.5977H14.1626V4.94141Z" stroke="#C8C8C8" stroke-width="0.3125"/>
<path d="M32.2842 4.94141C36.8382 8.17852 40.8137 12.1604 44.0436 16.7195C42.9697 15.6159 41.6677 14.7602 40.2287 14.2124C38.7896 13.6645 37.2482 13.4376 35.7123 13.5477C35.9313 11.9393 35.7308 10.3016 35.1301 8.79368C34.5294 7.28571 33.5491 5.95867 32.2842 4.94141Z" fill="url(#paint1_linear)"/>
<path d="M32.2842 4.94141C36.8382 8.17852 40.8137 12.1604 44.0436 16.7195C42.9697 15.6159 41.6677 14.7602 40.2287 14.2124C38.7896 13.6645 37.2482 13.4376 35.7123 13.5477C35.9313 11.9393 35.7308 10.3016 35.1301 8.79368C34.5294 7.28571 33.5491 5.95867 32.2842 4.94141V4.94141Z" stroke="#C8C8C8" stroke-width="0.3125"/>
<path d="M8.34229 10.1504H30.3735V14.3691H8.34229V10.1504Z" stroke="#C8C8C8" stroke-width="2.5"/>
<path d="M24.7173 31.0235C25.4454 29.5954 26.2798 27.9875 26.936 26.3719L27.1985 25.7344C26.3329 22.4407 25.8141 19.7969 26.2782 18.0875C26.3755 17.8574 26.5434 17.664 26.7577 17.5354C26.9719 17.4068 27.2215 17.3496 27.4704 17.3719H27.8673C28.6235 17.361 28.9782 18.3219 29.0188 18.6954C29.0246 19.2613 28.9504 19.8252 28.7985 20.3704C28.8357 19.7908 28.7499 19.2098 28.547 18.6657C28.2345 17.9797 27.936 17.5719 27.6688 17.5047C27.5737 17.5817 27.4965 17.6785 27.4426 17.7883C27.3886 17.8981 27.3592 18.0184 27.3563 18.1407C27.277 18.6257 27.2368 19.1164 27.236 19.6079C27.2729 21.0528 27.5004 22.4865 27.9126 23.8719C27.997 23.6282 28.0688 23.3938 28.1313 23.1735C28.2235 22.8266 28.8079 20.5313 28.8079 20.5313C28.8079 20.5313 28.661 23.5875 28.4548 24.511C28.411 24.7063 28.3626 24.9 28.311 25.0969C29.0028 27.0806 30.1508 28.874 31.6626 30.3329C32.2564 30.8479 32.9063 31.2945 33.6001 31.6641C34.9018 31.4678 36.2164 31.3691 37.5329 31.3688C38.5888 31.2623 39.6509 31.4996 40.561 32.0454C40.7616 32.2477 40.8801 32.5171 40.8938 32.8016C40.887 32.9502 40.8656 33.0978 40.8298 33.2422C40.8454 33.1625 40.8454 32.7735 39.6501 32.3891C38.0589 32.0864 36.4272 32.0637 34.8282 32.3219C37.2751 33.5188 39.661 34.1141 40.4157 33.7579C40.575 33.6514 40.7137 33.5169 40.8251 33.361C40.7726 33.6196 40.6962 33.8728 40.597 34.1172C40.4463 34.3085 40.2408 34.4492 40.0079 34.5204C38.8141 34.8329 35.7079 34.1016 33.0001 32.5547C29.943 33.024 26.9289 33.7404 23.9876 34.6969C21.3704 39.2844 19.4016 41.3907 17.8016 40.5891L17.2126 40.2938C17.1052 40.2072 17.0266 40.09 16.9873 39.9577C16.9479 39.8255 16.9497 39.6844 16.9923 39.5532C17.1782 38.6407 18.3235 37.2641 20.6235 35.8907C20.8704 35.7344 21.9735 35.1579 21.9735 35.1579C21.9735 35.1579 21.1563 35.9485 20.9657 36.1032C19.1298 37.6079 17.7751 39.5001 17.8079 40.2344V40.2985C19.3704 40.0766 21.7063 36.9016 24.7126 31.0188L24.7173 31.0235ZM25.6657 31.5063C25.1942 32.3883 24.7119 33.2644 24.2188 34.1344C26.7254 33.1299 29.331 32.3925 31.9923 31.9344C31.6485 31.698 31.3163 31.4451 30.997 31.1766C29.6247 29.9931 28.5082 28.5422 27.7157 26.9126C27.1362 28.4893 26.4486 30.0242 25.6579 31.5063" fill="#F91D0A"/>
<path d="M5.85938 7.76367H32.8344V16.8309H5.85938V7.76367Z" fill="url(#paint2_linear)"/>
<path d="M33.3482 17.3715H5.37012V7.2168H33.3482V17.3715ZM32.3436 8.22305H6.37637V16.3621H32.3436V8.22305Z" fill="url(#paint3_linear)"/>
<path d="M12.9092 9.0914H14.8717C15.1195 9.07554 15.3678 9.11356 15.5995 9.20284C15.8312 9.29212 16.0408 9.43055 16.2139 9.60859C16.5504 10.0194 16.718 10.5428 16.6826 11.0727C16.7179 11.6049 16.5505 12.1307 16.2139 12.5445C16.0404 12.7217 15.8306 12.8593 15.5989 12.9477C15.3672 13.0362 15.1191 13.0735 14.8717 13.057H14.0904V15.1648H12.9092V9.0914ZM14.092 10.2258V11.9227H14.7467C14.8461 11.9283 14.9455 11.9115 15.0375 11.8733C15.1295 11.8352 15.2117 11.7767 15.2779 11.7023C15.4119 11.5225 15.4783 11.3012 15.4654 11.0773C15.4798 10.8533 15.4133 10.6315 15.2779 10.4523C15.2118 10.3779 15.1296 10.3194 15.0376 10.2812C14.9456 10.2431 14.8461 10.2262 14.7467 10.232H14.092V10.2258ZM18.6998 10.2805V13.982H19.1232C19.3315 13.996 19.54 13.9608 19.7322 13.8794C19.9243 13.798 20.0947 13.6726 20.2295 13.5133C20.5115 13.1096 20.6472 12.6217 20.6139 12.1305C20.6471 11.6421 20.5126 11.157 20.2326 10.7555C20.0971 10.5962 19.9262 10.4709 19.7335 10.3895C19.5409 10.3081 19.3319 10.2729 19.1232 10.2867H18.6998V10.2805ZM17.517 9.10234H18.767C19.2891 9.07574 19.812 9.1397 20.3123 9.2914C20.6616 9.42733 20.9659 9.65847 21.1904 9.95859C21.4098 10.2409 21.5727 10.563 21.6701 10.907C21.7795 11.3033 21.8321 11.7131 21.8264 12.1242C21.8321 12.5389 21.7795 12.9523 21.6701 13.3523C21.5727 13.6964 21.4098 14.0184 21.1904 14.3008C20.963 14.6018 20.657 14.8343 20.3061 14.9727C19.8047 15.1249 19.2811 15.1909 18.7576 15.168H17.5076V9.0914L17.517 9.10234ZM22.7295 9.0914H25.9373V10.2758H23.9217V11.4055H25.8107V12.5898H23.9217V15.1648H22.7389V9.0914" fill="#FFF9F9"/>
</g>
<defs>
<linearGradient id="paint0_linear" x1="22.8857" y1="36.0064" x2="33.9389" y2="16.0295" gradientUnits="userSpaceOnUse">
<stop stop-color="white"/>
<stop offset="1" stop-color="#E1E1E1"/>
</linearGradient>
<linearGradient id="paint1_linear" x1="36.8076" y1="12.0805" x2="38.5076" y2="10.5133" gradientUnits="userSpaceOnUse">
<stop stop-color="white"/>
<stop offset="1" stop-color="#C8C8C8"/>
</linearGradient>
<linearGradient id="paint2_linear" x1="21.9672" y1="20.3621" x2="16.7266" y2="4.23242" gradientUnits="userSpaceOnUse">
<stop offset="0.127" stop-color="#8A0000"/>
<stop offset="0.244" stop-color="#900000" stop-opacity="0.999"/>
<stop offset="0.398" stop-color="#A00000" stop-opacity="0.999"/>
<stop offset="0.573" stop-color="#BC0000" stop-opacity="0.998"/>
<stop offset="0.761" stop-color="#E20000" stop-opacity="0.997"/>
<stop offset="0.867" stop-color="#FA0000" stop-opacity="0.996"/>
</linearGradient>
<linearGradient id="paint3_linear" x1="22.1873" y1="20.998" x2="16.5326" y2="3.59023" gradientUnits="userSpaceOnUse">
<stop offset="0.315" stop-color="#5E0000"/>
<stop offset="0.444" stop-color="#830000" stop-opacity="0.999"/>
<stop offset="0.618" stop-color="#AE0000" stop-opacity="0.998"/>
<stop offset="0.775" stop-color="#CD0000" stop-opacity="0.997"/>
<stop offset="0.908" stop-color="#E00000" stop-opacity="0.996"/>
<stop offset="1" stop-color="#E70000" stop-opacity="0.996"/>
</linearGradient>
</defs>
</svg>
