<svg width="15" height="15" viewBox="0 0 15 15" fill="none" xmlns="http://www.w3.org/2000/svg">
<path d="M6.45833 2.29167C6.45833 1.68388 6.21689 1.10098 5.78712 0.671214C5.35735 0.241443 4.77445 0 4.16667 0C3.55888 0 2.97598 0.241443 2.54621 0.671214C2.11644 1.10098 1.875 1.68388 1.875 2.29167C1.875 2.89945 2.11644 3.48235 2.54621 3.91212C2.97598 4.34189 3.55888 4.58333 4.16667 4.58333C4.77445 4.58333 5.35735 4.34189 5.78712 3.91212C6.21689 3.48235 6.45833 2.89945 6.45833 2.29167ZM2.70833 2.29167C2.70833 2.10016 2.74605 1.91052 2.81934 1.73359C2.89263 1.55665 3.00005 1.39589 3.13547 1.26047C3.27089 1.12505 3.43165 1.01763 3.60859 0.944342C3.78552 0.871054 3.97516 0.833333 4.16667 0.833333C4.35818 0.833333 4.54781 0.871054 4.72475 0.944342C4.90168 1.01763 5.06245 1.12505 5.19786 1.26047C5.33328 1.39589 5.4407 1.55665 5.51399 1.73359C5.58728 1.91052 5.625 2.10016 5.625 2.29167C5.625 2.67844 5.47135 3.04937 5.19786 3.32286C4.92437 3.59635 4.55344 3.75 4.16667 3.75C3.77989 3.75 3.40896 3.59635 3.13547 3.32286C2.86198 3.04937 2.70833 2.67844 2.70833 2.29167Z" fill="black"/>
<path d="M1.25 5.41699H4.73583C4.59917 5.67533 4.4975 5.95533 4.4375 6.25033H1.25C1.13949 6.25033 1.03351 6.29422 0.955372 6.37236C0.877232 6.4505 0.833333 6.55649 0.833333 6.66699V7.08366C0.833333 8.13366 1.74917 9.26199 3.41333 9.52533C3.145 9.70866 2.92167 9.95283 2.7625 10.237C1.00417 9.76116 0 8.40616 0 7.08366V6.66699C0 6.33547 0.131696 6.01753 0.366117 5.78311C0.600537 5.54869 0.918479 5.41699 1.25 5.41699Z" fill="black"/>
<path d="M5.73236 5.41634C6.15236 4.90801 6.7882 4.58301 7.49986 4.58301C7.99892 4.58214 8.48456 4.74456 8.88268 5.04548C9.28081 5.34641 9.56955 5.76932 9.70486 6.24968C9.82548 6.67843 9.81868 7.13301 9.6853 7.55796C9.55193 7.98291 9.29774 8.35985 8.95375 8.64277C8.60977 8.9257 8.19087 9.10238 7.74817 9.15126C7.30547 9.20013 6.85811 9.11909 6.4607 8.91801C6.15471 8.76228 5.88762 8.53978 5.67918 8.26696C5.47073 7.99414 5.32625 7.67797 5.25641 7.34181C5.18657 7.00565 5.19315 6.65809 5.27568 6.32482C5.35821 5.99154 5.51456 5.68107 5.7332 5.41634H5.73236ZM6.18236 6.24968C6.10029 6.4228 6.05311 6.6104 6.04354 6.80176C6.03396 6.99311 6.06217 7.18448 6.12655 7.36494C6.19093 7.54539 6.29023 7.7114 6.41877 7.85348C6.54731 7.99556 6.70257 8.11094 6.8757 8.19301C7.04882 8.27509 7.23642 8.32226 7.42778 8.33184C7.61913 8.34141 7.8105 8.3132 7.99096 8.24882C8.17141 8.18444 8.33742 8.08515 8.4795 7.95661C8.62158 7.82807 8.73695 7.6728 8.81903 7.49968C8.98479 7.14992 9.00482 6.74865 8.87472 6.38412C8.74462 6.0196 8.47503 5.72169 8.12528 5.55593C7.77553 5.39017 7.37425 5.37014 7.00973 5.50024C6.6452 5.63034 6.34729 5.89992 6.18153 6.24968H6.18236Z" fill="black"/>
<path d="M12.2376 10.237C12.0789 9.95267 11.8561 9.70928 11.5868 9.52616C13.2501 9.26199 14.1668 8.13283 14.1668 7.08366V6.66699C14.1668 6.55649 14.1229 6.4505 14.0448 6.37236C13.9666 6.29422 13.8606 6.25033 13.7501 6.25033H10.5626C10.5038 5.95977 10.4036 5.67914 10.2651 5.41699H13.7501C14.0817 5.41699 14.3996 5.54869 14.634 5.78311C14.8684 6.01753 15.0001 6.33547 15.0001 6.66699V7.08366C15.0001 8.40616 13.9951 9.76033 12.2376 10.237Z" fill="black"/>
<path d="M11.2391 10.3083C11.0191 10.1167 10.7316 10 10.4166 10H4.58326C4.41898 9.99956 4.25624 10.0316 4.10438 10.0943C3.95253 10.1569 3.81455 10.249 3.69839 10.3651C3.58223 10.4813 3.49017 10.6193 3.42751 10.7711C3.36485 10.923 3.33282 11.0857 3.33326 11.25V11.6667C3.33326 13.3092 4.88326 15 7.49992 15C10.1166 15 11.6666 13.3092 11.6666 11.6667V11.25C11.6666 10.875 11.5016 10.5383 11.2391 10.3083ZM4.16659 11.25C4.16659 11.1395 4.21049 11.0335 4.28863 10.9554C4.36677 10.8772 4.47275 10.8333 4.58326 10.8333H10.4166C10.5271 10.8333 10.6331 10.8772 10.7112 10.9554C10.7894 11.0335 10.8333 11.1395 10.8333 11.25V11.6667C10.8333 12.865 9.63992 14.1667 7.49992 14.1667C5.35992 14.1667 4.16659 12.865 4.16659 11.6667V11.25Z" fill="black"/>
<path d="M10.8334 0C11.4412 0 12.0241 0.241443 12.4539 0.671214C12.8836 1.10098 13.1251 1.68388 13.1251 2.29167C13.1251 2.89945 12.8836 3.48235 12.4539 3.91212C12.0241 4.34189 11.4412 4.58333 10.8334 4.58333C10.2256 4.58333 9.64273 4.34189 9.21296 3.91212C8.78319 3.48235 8.54175 2.89945 8.54175 2.29167C8.54175 1.68388 8.78319 1.10098 9.21296 0.671214C9.64273 0.241443 10.2256 0 10.8334 0ZM10.8334 0.833333C10.4466 0.833333 10.0757 0.986979 9.80222 1.26047C9.52873 1.53396 9.37508 1.90489 9.37508 2.29167C9.37508 2.67844 9.52873 3.04937 9.80222 3.32286C10.0757 3.59635 10.4466 3.75 10.8334 3.75C11.2202 3.75 11.5911 3.59635 11.8646 3.32286C12.1381 3.04937 12.2917 2.67844 12.2917 2.29167C12.2917 1.90489 12.1381 1.53396 11.8646 1.26047C11.5911 0.986979 11.2202 0.833333 10.8334 0.833333Z" fill="black"/>
</svg>
