<svg width="14" height="11" viewBox="0 0 14 11" fill="none" xmlns="http://www.w3.org/2000/svg">
<path d="M13.7584 0.857309C13.7018 0.749613 13.6169 0.659413 13.5128 0.596444C13.4087 0.533475 13.2894 0.500127 13.1678 0.5H1.16861C1.04718 0.500502 0.928189 0.534095 0.824424 0.597169C0.72066 0.660242 0.636052 0.750408 0.5797 0.857971C0.523347 0.965533 0.497383 1.08642 0.504598 1.20764C0.511814 1.32885 0.551936 1.44581 0.620651 1.54593L6.62024 10.212C6.6814 10.3008 6.76323 10.3734 6.85868 10.4236C6.95414 10.4738 7.06036 10.5 7.1682 10.5C7.27604 10.5 7.38226 10.4738 7.47772 10.4236C7.57318 10.3734 7.65501 10.3008 7.71616 10.212L13.7158 1.54593C13.7851 1.44602 13.8258 1.32899 13.8333 1.20758C13.8408 1.08617 13.8149 0.965022 13.7584 0.857309ZM7.1682 8.66144L2.44053 1.83324H11.8959L7.1682 8.66144Z" fill="#D91694" fill-opacity="0.9"/>
<path d="M11.1679 3.56645L7.94414 8.36612L4.76835 3.56645H11.1679Z" fill="#D91694" fill-opacity="0.9"/>
</svg>
