<svg width="14" height="11" viewBox="0 0 14 11" fill="none" xmlns="http://www.w3.org/2000/svg">
<path d="M13.7516 0.857309C13.695 0.749613 13.6101 0.659413 13.506 0.596444C13.4019 0.533475 13.2826 0.500127 13.161 0.5H1.16178C1.04035 0.500502 0.921353 0.534095 0.817588 0.597169C0.713824 0.660242 0.629216 0.750408 0.572864 0.857971C0.516511 0.965533 0.490547 1.08642 0.497762 1.20764C0.504978 1.32885 0.5451 1.44581 0.613815 1.54593L6.6134 10.212C6.67456 10.3008 6.75639 10.3734 6.85185 10.4236C6.9473 10.4738 7.05353 10.5 7.16137 10.5C7.2692 10.5 7.37543 10.4738 7.47088 10.4236C7.56634 10.3734 7.64817 10.3008 7.70933 10.212L13.7089 1.54593C13.7783 1.44602 13.819 1.32899 13.8265 1.20758C13.834 1.08617 13.8081 0.965022 13.7516 0.857309ZM7.16137 8.66144L2.43369 1.83324H11.889L7.16137 8.66144Z" fill="#792BC4" fill-opacity="0.9"/>
<path d="M11.1611 3.56645L7.9373 8.36612L4.76152 3.56645H11.1611Z" fill="#792BC4" fill-opacity="0.9"/>
</svg>
