<svg width="12" height="10" viewBox="0 0 12 10" fill="none" xmlns="http://www.w3.org/2000/svg">
<path fill-rule="evenodd" clip-rule="evenodd" d="M0.25 1.16393C0.25 1.05415 0.29361 0.948863 0.371237 0.871237C0.448863 0.79361 0.554147 0.75 0.663927 0.75H11.426C11.5358 0.75 11.6411 0.79361 11.7187 0.871237C11.7964 0.948863 11.84 1.05415 11.84 1.16393C11.84 1.27371 11.7964 1.37899 11.7187 1.45662C11.6411 1.53424 11.5358 1.57785 11.426 1.57785H0.663927C0.554147 1.57785 0.448863 1.53424 0.371237 1.45662C0.29361 1.37899 0.25 1.27371 0.25 1.16393ZM6.04498 3.23356C6.15476 3.23356 6.26005 3.27717 6.33767 3.3548C6.4153 3.43243 6.45891 3.53771 6.45891 3.64749V8.44325L8.23549 6.66585C8.31321 6.58813 8.41863 6.54446 8.52855 6.54446C8.63847 6.54446 8.74388 6.58813 8.82161 6.66585C8.89933 6.74358 8.943 6.84899 8.943 6.95891C8.943 7.06883 8.89933 7.17425 8.82161 7.25197L6.33804 9.73554C6.29959 9.77408 6.25392 9.80467 6.20363 9.82553C6.15334 9.8464 6.09943 9.85714 6.04498 9.85714C5.99054 9.85714 5.93663 9.8464 5.88634 9.82553C5.83605 9.80467 5.79037 9.77408 5.75192 9.73554L3.26836 7.25197C3.19063 7.17425 3.14697 7.06883 3.14697 6.95891C3.14697 6.84899 3.19063 6.74358 3.26836 6.66585C3.34608 6.58813 3.4515 6.54446 3.56142 6.54446C3.67134 6.54446 3.77676 6.58813 3.85448 6.66585L5.63106 8.44325V3.64749C5.63106 3.53771 5.67467 3.43243 5.75229 3.3548C5.82992 3.27717 5.9352 3.23356 6.04498 3.23356Z" fill="#070716" fill-opacity="0.6"/>
</svg>
