<svg width="11" height="15" viewBox="0 0 11 15" fill="none" xmlns="http://www.w3.org/2000/svg">
<path d="M5.34247 15L5.0137 14.6301C4.80822 14.4247 0 8.75342 0 5.34247C0 2.38356 2.38356 0 5.34247 0C8.30137 0 10.6849 2.38356 10.6849 5.34247C10.6849 8.75342 5.87671 14.4247 5.67123 14.6712L5.34247 15ZM5.34247 0.821918C2.83562 0.821918 0.821918 2.83562 0.821918 5.34247C0.821918 7.9726 4.27397 12.411 5.34247 13.726C6.41096 12.411 9.86301 7.9726 9.86301 5.34247C9.86301 2.83562 7.84932 0.821918 5.34247 0.821918Z" fill="#070716" fill-opacity="0.6"/>
<path d="M5.34245 7.39722C4.19177 7.39722 3.28766 6.49311 3.28766 5.34242C3.28766 4.19174 4.19177 3.28763 5.34245 3.28763C6.49314 3.28763 7.39725 4.19174 7.39725 5.34242C7.39725 6.49311 6.49314 7.39722 5.34245 7.39722ZM5.34245 4.10955C4.64382 4.10955 4.10958 4.64379 4.10958 5.34242C4.10958 6.04105 4.64382 6.5753 5.34245 6.5753C6.04108 6.5753 6.57533 6.04105 6.57533 5.34242C6.57533 4.64379 6.04108 4.10955 5.34245 4.10955Z" fill="#070716" fill-opacity="0.6"/>
</svg>
