<svg width="15" height="11" viewBox="0 0 15 11" fill="none" xmlns="http://www.w3.org/2000/svg">
<path d="M14.0895 0.857309C14.0329 0.749613 13.948 0.659413 13.8439 0.596444C13.7398 0.533475 13.6205 0.500127 13.4988 0.5H1.49967C1.37824 0.500502 1.25924 0.534095 1.15548 0.597169C1.05171 0.660242 0.967106 0.750408 0.910754 0.857971C0.854402 0.965533 0.828438 1.08642 0.835653 1.20764C0.842869 1.32885 0.882991 1.44581 0.951706 1.54593L6.95129 10.212C7.01245 10.3008 7.09428 10.3734 7.18974 10.4236C7.28519 10.4738 7.39142 10.5 7.49926 10.5C7.60709 10.5 7.71332 10.4738 7.80877 10.4236C7.90423 10.3734 7.98606 10.3008 8.04722 10.212L14.0468 1.54593C14.1162 1.44602 14.1569 1.32899 14.1644 1.20758C14.1719 1.08617 14.146 0.965022 14.0895 0.857309ZM7.49926 8.66144L2.77158 1.83324H12.2269L7.49926 8.66144Z" fill="#16D0D9" fill-opacity="0.9"/>
<path d="M11.499 3.56645L8.27519 8.36612L5.09941 3.56645H11.499Z" fill="#16D0D9" fill-opacity="0.9"/>
</svg>
